<!DOCTYPE HTML PUBLIC "-//W3C//DTD HTML 3.2//EN">
<HTML>
 <HEAD>
<!-- Global site tag (gtag.js) - Google Analytics -->
<script async src="https://www.googletagmanager.com/gtag/js?id=UA-51353372-3"></script>
<script>
  window.dataLayer = window.dataLayer || [];
  function gtag(){dataLayer.push(arguments);}
  gtag('js', new Date());

  gtag('config', 'UA-51353372-3');
</script>
   <TITLE> [nycphp-talk] [OT] FFMPEG &amp; LAME
   </TITLE>
   <LINK REL="Index" HREF="http://nyphp.org/pipermail/talk/2007-October/index.html" >
   <LINK REL="made" HREF="mailto:talk%40lists.nyphp.org?Subject=Re:%20Re%3A%20%5Bnyphp-talk%5D%20%5BOT%5D%20FFMPEG%20%26%20LAME&In-Reply-To=%3C007701c80b42%2421333410%246401a8c0%40gamebox%3E">
   <META NAME="robots" CONTENT="index,nofollow">
   <META http-equiv="Content-Type" content="text/html; charset=us-ascii">
   <LINK REL="Previous"  HREF="023568.html">
   <LINK REL="Next"  HREF="023570.html">
 <meta name="description" content="PHP jobs stackware web application support and development forums for Mongo LAMP MySQL SQL Windows IIS Linux." />
<meta name="author" content="Stackware Web Development - http://stackware.com" />
<meta name="verify-v1" content="zWMoPwMn/dolscLkjLXTpRqgr9K8bzlzL1vM9WTjpHc=" />
<meta name="msvalidate.01" content="F85F81C1D0BAB5C349E8395628845E27" />
<meta name="y_key" content="265502be3db4fb6e" />
</HEAD>
         <BODY BGCOLOR="#ffffff">
<h1 style="float: right; margin: 0; padding: 0 0 0 15px;"><a href="https://www.meetup.com/new-york-php/">NYCPHP Meetup</a></h1><h1><a href="http://www.nyphp.org">NYPHP.org</a></h1>
   <H1>[nycphp-talk] [OT] FFMPEG &amp; LAME</H1>
    <B>Ben Sgro (ProjectSkyLine)</B> 
    <A HREF="mailto:talk%40lists.nyphp.org?Subject=Re:%20Re%3A%20%5Bnyphp-talk%5D%20%5BOT%5D%20FFMPEG%20%26%20LAME&In-Reply-To=%3C007701c80b42%2421333410%246401a8c0%40gamebox%3E"
       TITLE="[nycphp-talk] [OT] FFMPEG &amp; LAME">ben at projectskyline.com
       </A><BR>
    <I>Wed Oct 10 09:33:22 EDT 2007</I>
    <P><UL>
        <LI>Previous message: <A HREF="023568.html">[nycphp-talk] need help about search engine
</A></li>
        <LI>Next message: <A HREF="023570.html">[nycphp-talk] [OT] FFMPEG &amp; LAME
</A></li>
         <LI> <B>Messages sorted by:</B> 
              <a href="date.html#23569">[ date ]</a>
              <a href="thread.html#23569">[ thread ]</a>
              <a href="subject.html#23569">[ subject ]</a>
              <a href="author.html#23569">[ author ]</a>
         </LI>
       </UL>
    <HR>  
<!--beginarticle-->
<PRE>Good morning, 

Super off topic, but since this list is one of my best resources for help, 
I figured I'll try here.

I've spent a lot of time on google and can't seem to figure out the problem.

I have a PHP app that is converting .avi's to .flvs. I'm using ffmpeg and lame.

I've built ffmpeg w/libmp3lame support enabled, to encode to .mp3 for the .flv

However, I don't know much about this stuff, and I can't seem to figure out the correct
parameters. The online documentation for ffmpeg is lacking.

[<A HREF="http://lists.nyphp.org/mailman/listinfo/talk">sk at tinman</A> storyx]$ /usr/local/bin/ffmpeg -i uploaded_videos/978516602470bb1a2a1373.AVI -acodec libmp3lame -vcodec flv -b 1200kb -mbd 2 -flags +4mv+4rell -aic 2 -cmp 2 -subcmp 2 -s 450x300 -title Title converted_videos/978516602470bb1a2a1373.flv
FFmpeg version SVN-r10700, Copyright (c) 2000-2007 Fabrice Bellard, et al.
  configuration: --enable-libmp3lame
  libavutil version: 49.5.0
  libavcodec version: 51.45.0
  libavformat version: 51.14.0
  built on Oct  9 2007 15:26:19, gcc: 4.1.1 20070105 (Red Hat 4.1.1-52)
Input #0, avi, from 'uploaded_videos/978516602470bb1a2a1373.AVI':
  Duration: 00:00:09.1, start: 0.000000, bitrate: 3407 kb/s
  Stream #0.0: Video: mjpeg, yuvj422p, 320x240, 20.00 fps(r)
  Stream #0.1: Audio: pcm_u8, 11024 Hz, mono, 88 kb/s
File 'converted_videos/978516602470bb1a2a1373.flv' already exists. Overwrite ? [y/N] y
PIX_FMT_YUV420P will be used as an intermediate format for rescaling
Output #0, flv, to 'converted_videos/978516602470bb1a2a1373.flv':
  Stream #0.0: Video: flv (hq), yuv420p, 450x300, q=2-31, 1200 kb/s, 20.00 fps(c)
  Stream #0.1: Audio: libmp3lame, 11024 Hz, mono, 64 kb/s
Stream mapping:
  Stream #0.0 -&gt; #0.0
  Stream #0.1 -&gt; #0.1
[flv @ 0x84b51f0]removing common factors from framerate
Error while opening codec for output stream #0.1 - maybe incorrect parameters such as bit_rate, rate, width or height

Any one w/experiance that can help is appreciated!

- Ben

Ben Sgro, President
ProjectSkyLine - Defining New Horizons
+1 718.487.9368 (N.Y. Office)

Our company: www.projectskyline.com
Our products: www.project-contact.com

This e-mail is confidential information intended only for the use of the individual to whom it is addressed.
-------------- next part --------------
An HTML attachment was scrubbed...
URL: &lt;<A HREF="http://lists.nyphp.org/pipermail/talk/attachments/20071010/571f7da6/attachment.html">http://lists.nyphp.org/pipermail/talk/attachments/20071010/571f7da6/attachment.html</A>&gt;
</PRE>

<!--endarticle-->
    <HR>
    <P><UL>
        <!--threads-->
	<LI>Previous message: <A HREF="023568.html">[nycphp-talk] need help about search engine
</A></li>
	<LI>Next message: <A HREF="023570.html">[nycphp-talk] [OT] FFMPEG &amp; LAME
</A></li>
         <LI> <B>Messages sorted by:</B> 
              <a href="date.html#23569">[ date ]</a>
              <a href="thread.html#23569">[ thread ]</a>
              <a href="subject.html#23569">[ subject ]</a>
              <a href="author.html#23569">[ author ]</a>
         </LI>
       </UL>

<hr>
<a href="http://lists.nyphp.org/mailman/listinfo/talk">More information about the talk
mailing list</a><br>
</body></html>
